# xmcd
#
# Track frame offsets: 
#        150
#        11255
#        22730
#        34960
#        45310
#        57347
#        68335
#        80747
#        92522
#        104522
#        117350
#        129125
#        142062
#        153200
#        166137
#        178025
#        191600
#        204615
#        216540
#        227827
#        240052
#        253590
#        265440
#        277327
#        290105
#        302255
#        313950
#        325500
#        336865
#
# Disc length: 4653 seconds
#
# Revision: 1
# Processed by: cddbd v1.5.2PL0 Copyright (c) Steve Scherf et al.
# Submitted via: ExactAudioCopyFreeDBPlugin 1.0
#
DISCID=98122b1d
DTITLE=Guitar Slim and Jelly Belly - Carolina Blues
DYEAR=1997
DGENRE=Blues
TTITLE0=Ups and Downs Blues
TTITLE1=Crooked Wife Blues
TTITLE2=Snowing and Raining
TTITLE3=No More Hard Time
TTITLE4=She's Evil and Mean
TTITLE5=Mike and Jerry
TTITLE6=Don't Leave Me All by Myself
TTITLE7=South Carolina Blues
TTITLE8=Crying Won't Make Me Stay
TTITLE9=Big Trouble Blues
TTITLE10=Humming Bird Blues
TTITLE11=Right and Wrong Woman
TTITLE12=Southern Whistle Blues
TTITLE13=Jail and Buddy Blues
TTITLE14=Man Girl Blues
TTITLE15=Travelin' Boy's Blues
TTITLE16=Railroad Blues
TTITLE17=Yellow and Brown Woman
TTITLE18=Bad Acting Woman
TTITLE19=Christmas Time Blues
TTITLE20=Cooking Big Woman
TTITLE21=You're My Honey
TTITLE22=Early Morning Blues
TTITLE23=Isabel
TTITLE24=Hard Luck Blues
TTITLE25=Unhappy Home Blues
TTITLE26=Working Man Blues
TTITLE27=Why, Oh Why
TTITLE28=Betty and Dupree
EXTD=
EXTT0=
EXTT1=
EXTT2=
EXTT3=
EXTT4=
EXTT5=
EXTT6=
EXTT7=
EXTT8=
EXTT9=
EXTT10=
EXTT11=
EXTT12=
EXTT13=
EXTT14=
EXTT15=
EXTT16=
EXTT17=
EXTT18=
EXTT19=
EXTT20=
EXTT21=
EXTT22=
EXTT23=
EXTT24=
EXTT25=
EXTT26=
EXTT27=
EXTT28=
PLAYORDER=
